Source: I can't remember for sure, but I think I got it from here.

Encoded for PSP & iPod & Zune

Resolution: 320 X 240

I have tested this on a PSP Slim 2000 w/ 5.00 M33.6 (custom firmware) & a PSP 1000 5.00 (official Sony)

I haven't tested this on Zune or iPod Touch as I don't have one, but if someone would test it and let me know, it would be nice.

If you need/want to get in touch with me (request, reseed, etc.). Send an email to movi3sdir3ct@hotbox.ru

Please seed when finished downloading and leave a comment, request, etc. And above all ENJOY!

If anyone would like any tv show, movie, music video, or yes, even XXX, for PSP or any other handheld device for that matter. I would be more than happy to do it for you. Just leave a comment or send an email to movi3sdir3ct@hotbox.ru 

I check my email hourly.

Plot
Three women set out to find eligible millionaires to marry, but find true love in the process.

General Nfo
Format                           : MPEG-4
Codec ID                         : M4V 
File size                        : 416 MiB
Duration                         : 1h 31mn
Overall bit rate                 : 633 Kbps
Movie name                       : How to Marry a Millionaire
Encoded date                     : 2010
Writing application              : Lavf52.33.0

Video
ID                               : 1
Format                           : AVC
Format/Info                      : Advanced Video Codec
Format profile                   : Baseline@L1.3
Format settings, CABAC           : No
Format settings, ReFrames        : 1 frame
Codec ID                         : avc1
Codec ID/Info                    : Advanced Video Coding
Duration                         : 1h 31mn
Bit rate mode                    : Variable
Bit rate                         : 500 Kbps
Width                            : 320 pixels
Height                           : 240 pixels
Display aspect ratio             : 4:3
Frame rate mode                  : Constant
Frame rate                       : 29.970 fps
Color space                      : YUV
Chroma subsampling               : 4:2:0
Bit depth                        : 8 bits
Scan type                        : Progressive
Bits/(Pixel*Frame)               : 0.217
Stream size                      : 328 MiB (79%)

Audio
ID                               : 2
Format                           : AAC
Format/Info                      : Advanced Audio Codec
Format version                   : Version 4
Format profile                   : LC
Format settings, SBR             : No
Codec ID                         : 40
Duration                         : 1h 31mn
Bit rate mode                    : Variable
Bit rate                         : 128 Kbps
Channel(s)                       : 2 channels
Channel positions                : Front: L R
Sampling rate                    : 48.0 KHz
Stream size                      : 84.0 MiB (20%)


More of my stuff here - http://thepiratebay.org/user/The_Day_Walker/ 

My RSS Feed - http://rss.thepiratebay.org/user/ee512d573c1dcdf705dd6925ea080014/